0
SECTION
2
HEADER
9
$INSUNITS
70
4
9
$ACADVER
1
AC1014
9
$HANDSEED
5
FFFF
0
ENDSEC
0
SECTION
2
TABLES
0
TABLE
2
VPORT
5
8
100
AcDbSymbolTable
0
ENDTAB
0
TABLE
2
LTYPE
5
5
100
AcDbSymbolTable
0
LTYPE
5
14
100
AcDbSymbolTableRecord
100
AcDbLinetypeTableRecord
2
BYBLOCK
70
0
0
LTYPE
5
15
100
AcDbSymbolTableRecord
100
AcDbLinetypeTableRecord
2
BYLAYER
70
0
0
ENDTAB
0
TABLE
2
LAYER
5
2
100
AcDbSymbolTable
70
2
0
LAYER
5
50
100
AcDbSymbolTableRecord
100
AcDbLayerTableRecord
2
0
70
0
6
CONTINUOUS
0
ENDTAB
0
TABLE
2
STYLE
5
3
100
AcDbSymbolTable
70
1
0
STYLE
5
11
100
AcDbSymbolTableRecord
100
AcDbTextStyleTableRecord
2
STANDARD
70
0
0
ENDTAB
0
TABLE
2
VIEW
5
6
100
AcDbSymbolTable
70
0
0
ENDTAB
0
TABLE
2
UCS
5
7
100
AcDbSymbolTable
70
0
0
ENDTAB
0
TABLE
2
APPID
5
9
100
AcDbSymbolTable
70
2
0
APPID
5
12
100
AcDbSymbolTableRecord
100
AcDbRegAppTableRecord
2
ACAD
70
0
0
ENDTAB
0
TABLE
2
DIMSTYLE
5
A
100
AcDbSymbolTable
70
1
0
ENDTAB
0
TABLE
2
BLOCK_RECORD
5
1
100
AcDbSymbolTable
70
1
0
BLOCK_RECORD
5
1F
100
AcDbSymbolTableRecord
100
AcDbBlockTableRecord
2
*MODEL_SPACE
0
BLOCK_RECORD
5
1B
100
AcDbSymbolTableRecord
100
AcDbBlockTableRecord
2
*PAPER_SPACE
0
ENDTAB
0
ENDSEC
0
SECTION
2
BLOCKS
0
BLOCK
5
20
100
AcDbEntity
100
AcDbBlockBegin
2
*MODEL_SPACE
0
ENDBLK
5
21
100
AcDbEntity
100
AcDbBlockEnd
0
BLOCK
5
1C
100
AcDbEntity
100
AcDbBlockBegin
2
*PAPER_SPACE
0
ENDBLK
5
1D
100
AcDbEntity
100
AcDbBlockEnd
0
ENDSEC
0
SECTION
2
ENTITIES
0
LWPOLYLINE
5
100
100
AcDbEntity
8
0
100
AcDbPolyline
90
24
70
1
43
0.0
10
11.203877993019113
20
-93.937991509565123
10
11.203877993019116
20
-86.090031214677921
10
-3.6431619902069912
20
-86.090031214677936
10
-3.6431619902069912
20
-89.090031214678049
10
7.4113373460242045
20
-89.090031214677822
10
7.4113373460240961
20
-93.937991505810743
10
-53.665627174280992
20
-93.9379914453487
42
0.34572441179199759
10
-160.52969255863195
20
-177.85980989826683
42
-0.92463680815376481
10
-185.29521125728559
20
-173.83573967421751
10
-185.2952112572855
20
176.16263364635006
42
-0.8576930534878886
10
-160.52969255863192
20
180.18833054983176
42
0.34572441179057223
10
-53.665627174280957
20
96.266512096913615
10
7.411337346024121
20
96.266512157375658
10
7.4113373460241982
20
91.418551866242751
10
-3.6431619902070045
20
91.418551866242964
10
-3.6431619902070067
20
88.418551866242851
10
11.203877993019105
20
88.418551866242851
10
11.2038779930191
20
96.266512161130052
10
58.451449256172921
20
96.266512207901911
42
0.34322917377605722
10
165.07858933282037
20
179.2359186856909
42
-0.88296851697531686
10
189.69530980076368
20
176.16426032578246
10
189.69530979989446
20
-173.83573967421754
42
-0.88297552473738494
10
165.0785893328204
20
-176.90739803412589
42
0.34322917377605711
10
58.451449256172893
20
-93.937991556336982
0
CIRCLE
5
101
100
AcDbEntity
8
0
100
AcDbCircle
10
177.19530980076368
20
-173.83573967421754
30
0
40
2.3999999999999844
210
0
220
-0
230
1
0
CIRCLE
5
102
100
AcDbEntity
8
0
100
AcDbCircle
10
-172.80469019923632
20
-173.83573967421754
30
0
40
2.3999999999999844
210
0
220
-0
230
1
0
CIRCLE
5
103
100
AcDbEntity
8
0
100
AcDbCircle
10
177.19530980076368
20
176.16426032578246
30
0
40
2.3999999999999844
210
0
220
-0
230
1
0
CIRCLE
5
104
100
AcDbEntity
8
0
100
AcDbCircle
10
-172.50469019923634
20
176.16426032578246
30
0
40
2.3999999999999844
210
0
220
-0
230
1
0
CIRCLE
5
105
100
AcDbEntity
8
0
100
AcDbCircle
10
169.69530980076368
20
-53.835739674217535
30
0
40
3.5999999999999943
210
0
220
-0
230
1
0
CIRCLE
5
106
100
AcDbEntity
8
0
100
AcDbCircle
10
109.99530980076366
20
-53.835739674217535
30
0
40
2.5499999999999901
210
0
220
-0
230
1
0
CIRCLE
5
107
100
AcDbEntity
8
0
100
AcDbCircle
10
109.99530980076366
20
1.1642603257824646
30
0
40
3.5999999999999943
210
0
220
-0
230
1
0
CIRCLE
5
108
100
AcDbEntity
8
0
100
AcDbCircle
10
109.99530980076366
20
56.164260325782465
30
0
40
2.5500000000000078
210
0
220
-0
230
1
0
CIRCLE
5
109
100
AcDbEntity
8
0
100
AcDbCircle
10
169.69530980076368
20
56.164260325782465
30
0
40
3.5999999999999943
210
0
220
-0
230
1
0
CIRCLE
5
110
100
AcDbEntity
8
0
100
AcDbCircle
10
169.69530980076368
20
1.1642603257824646
30
0
40
3.5999999999999943
210
0
220
-0
230
1
0
CIRCLE
5
111
100
AcDbEntity
8
0
100
AcDbCircle
10
-105.60469019923632
20
1.1642603257824646
30
0
40
3.5999999999999943
210
0
220
-0
230
1
0
CIRCLE
5
112
100
AcDbEntity
8
0
100
AcDbCircle
10
-165.30469019923632
20
-53.835739674217535
30
0
40
3.5999999999999943
210
0
220
-0
230
1
0
CIRCLE
5
113
100
AcDbEntity
8
0
100
AcDbCircle
10
-165.30469019923632
20
56.164260325782465
30
0
40
3.5999999999999943
210
0
220
-0
230
1
0
CIRCLE
5
114
100
AcDbEntity
8
0
100
AcDbCircle
10
-105.60469019923632
20
56.164260325782465
30
0
40
2.5500000000000078
210
0
220
-0
230
1
0
CIRCLE
5
115
100
AcDbEntity
8
0
100
AcDbCircle
10
-165.30469019923632
20
1.1642603257824646
30
0
40
3.5999999999999943
210
0
220
-0
230
1
0
CIRCLE
5
116
100
AcDbEntity
8
0
100
AcDbCircle
10
-105.60469019923632
20
-53.835739674217535
30
0
40
2.5499999999999901
210
0
220
-0
230
1
0
CIRCLE
5
117
100
AcDbEntity
8
0
100
AcDbCircle
10
87.195309800763681
20
-83.835739674217535
30
0
40
2.4249999999999972
210
0
220
-0
230
1
0
CIRCLE
5
118
100
AcDbEntity
8
0
100
AcDbCircle
10
87.195309800763681
20
86.164260325782465
30
0
40
2.4249999999999972
210
0
220
-0
230
1
0
CIRCLE
5
119
100
AcDbEntity
8
0
100
AcDbCircle
10
-82.804690199236319
20
-83.835739674217535
30
0
40
2.4249999999999972
210
0
220
-0
230
1
0
CIRCLE
5
120
100
AcDbEntity
8
0
100
AcDbCircle
10
-82.804690199236319
20
86.164260325782465
30
0
40
2.4249999999999972
210
0
220
-0
230
1
0
CIRCLE
5
121
100
AcDbEntity
8
0
100
AcDbCircle
10
129.99530980076366
20
56.164260325782465
30
0
40
2.5500000000000078
210
0
220
-0
230
1
0
CIRCLE
5
122
100
AcDbEntity
8
0
100
AcDbCircle
10
129.99530980076366
20
1.1642603257824646
30
0
40
3.5999999999999943
210
0
220
-0
230
1
0
CIRCLE
5
123
100
AcDbEntity
8
0
100
AcDbCircle
10
129.99530980076366
20
-53.835739674217535
30
0
40
2.5499999999999901
210
0
220
-0
230
1
0
CIRCLE
5
124
100
AcDbEntity
8
0
100
AcDbCircle
10
-125.60469019923632
20
-53.835739674217535
30
0
40
2.5499999999999901
210
0
220
-0
230
1
0
CIRCLE
5
125
100
AcDbEntity
8
0
100
AcDbCircle
10
-125.60469019923632
20
1.1642603257824646
30
0
40
3.5999999999999943
210
0
220
-0
230
1
0
CIRCLE
5
126
100
AcDbEntity
8
0
100
AcDbCircle
10
-125.60469019923632
20
56.164260325782465
30
0
40
2.5500000000000078
210
0
220
-0
230
1
0
CIRCLE
5
127
100
AcDbEntity
8
0
100
AcDbCircle
10
159.69530980076368
20
-53.192641979015463
30
0
40
1.6999999999999993
210
0
220
-0
230
1
0
CIRCLE
5
128
100
AcDbEntity
8
0
100
AcDbCircle
10
139.69530980076368
20
-53.192641979015463
30
0
40
1.6999999999999993
210
0
220
-0
230
1
0
CIRCLE
5
129
100
AcDbEntity
8
0
100
AcDbCircle
10
139.69530980076368
20
-33.19264197901547
30
0
40
1.6999999999999815
210
0
220
-0
230
1
0
CIRCLE
5
130
100
AcDbEntity
8
0
100
AcDbCircle
10
159.69530980076368
20
-33.19264197901547
30
0
40
1.6999999999999993
210
0
220
-0
230
1
0
CIRCLE
5
131
100
AcDbEntity
8
0
100
AcDbCircle
10
159.69530980076368
20
-48.192641979015448
30
0
40
1.6999999999999993
210
0
220
-0
230
1
0
CIRCLE
5
132
100
AcDbEntity
8
0
100
AcDbCircle
10
139.69530980076368
20
-48.192641979015448
30
0
40
1.6999999999999993
210
0
220
-0
230
1
0
CIRCLE
5
133
100
AcDbEntity
8
0
100
AcDbCircle
10
139.69530980076368
20
35.521162630580399
30
0
40
1.6999999999999815
210
0
220
-0
230
1
0
CIRCLE
5
134
100
AcDbEntity
8
0
100
AcDbCircle
10
159.69530980076368
20
35.521162630580399
30
0
40
1.6999999999999993
210
0
220
-0
230
1
0
CIRCLE
5
135
100
AcDbEntity
8
0
100
AcDbCircle
10
159.69530980076368
20
50.521162630580378
30
0
40
1.6999999999999993
210
0
220
-0
230
1
0
CIRCLE
5
136
100
AcDbEntity
8
0
100
AcDbCircle
10
139.69530980076368
20
50.521162630580378
30
0
40
1.6999999999999993
210
0
220
-0
230
1
0
CIRCLE
5
137
100
AcDbEntity
8
0
100
AcDbCircle
10
139.69530980076368
20
55.521162630580392
30
0
40
1.6999999999999993
210
0
220
-0
230
1
0
CIRCLE
5
138
100
AcDbEntity
8
0
100
AcDbCircle
10
159.69530980076368
20
55.521162630580392
30
0
40
1.6999999999999993
210
0
220
-0
230
1
0
CIRCLE
5
139
100
AcDbEntity
8
0
100
AcDbCircle
10
-135.30469019923632
20
-53.192641979015463
30
0
40
1.6999999999999993
210
0
220
-0
230
1
0
CIRCLE
5
140
100
AcDbEntity
8
0
100
AcDbCircle
10
-135.30469019923632
20
-33.192641979015463
30
0
40
1.6999999999999815
210
0
220
-0
230
1
0
CIRCLE
5
141
100
AcDbEntity
8
0
100
AcDbCircle
10
-155.30469019923632
20
-33.192641979015463
30
0
40
1.6999999999999993
210
0
220
-0
230
1
0
CIRCLE
5
142
100
AcDbEntity
8
0
100
AcDbCircle
10
-155.30469019923632
20
-48.192641979015463
30
0
40
1.6999999999999993
210
0
220
-0
230
1
0
CIRCLE
5
143
100
AcDbEntity
8
0
100
AcDbCircle
10
-155.30469019923632
20
-53.192641979015463
30
0
40
1.6999999999999993
210
0
220
-0
230
1
0
CIRCLE
5
144
100
AcDbEntity
8
0
100
AcDbCircle
10
-155.30469019923632
20
35.521162630580392
30
0
40
1.6999999999999993
210
0
220
-0
230
1
0
CIRCLE
5
145
100
AcDbEntity
8
0
100
AcDbCircle
10
-155.30469019923632
20
50.521162630580378
30
0
40
1.6999999999999993
210
0
220
-0
230
1
0
CIRCLE
5
146
100
AcDbEntity
8
0
100
AcDbCircle
10
-155.30469019923632
20
55.521162630580392
30
0
40
1.6999999999999993
210
0
220
-0
230
1
0
CIRCLE
5
147
100
AcDbEntity
8
0
100
AcDbCircle
10
-135.30469019923632
20
50.521162630580378
30
0
40
1.6999999999999993
210
0
220
-0
230
1
0
CIRCLE
5
148
100
AcDbEntity
8
0
100
AcDbCircle
10
-135.30469019923632
20
55.521162630580392
30
0
40
1.6999999999999993
210
0
220
-0
230
1
0
CIRCLE
5
149
100
AcDbEntity
8
0
100
AcDbCircle
10
-135.30469019923632
20
35.521162630580392
30
0
40
1.6999999999999815
210
0
220
-0
230
1
0
CIRCLE
5
150
100
AcDbEntity
8
0
100
AcDbCircle
10
-135.30469019923632
20
-48.192641979015463
30
0
40
1.6999999999999993
210
0
220
-0
230
1
0
LWPOLYLINE
5
151
100
AcDbEntity
8
0
100
AcDbPolyline
90
6
70
1
43
0.0
10
11.458358815283333
20
37.157164704898861
10
11.458358815283333
20
38.157164704898946
42
0.41421356237309437
10
10.458358815283395
20
39.157164704898868
10
-3.3412171040178062
20
39.157164704898868
42
5.138299335940415
10
-3.3787377022695986
20
36.157164704898861
10
10.458358815283354
20
36.157164704898868
42
0.41421356237309825
0
LWPOLYLINE
5
152
100
AcDbEntity
8
0
100
AcDbPolyline
90
6
70
1
43
0.0
10
-3.378737702269583
20
-42.842835295101132
10
10.458358815283358
20
-42.842835295101125
42
0.41421356237309503
10
11.458358815283328
20
-41.842835295101153
10
11.458358815283328
20
-40.842835295101082
42
0.41421356237309503
10
10.458358815283388
20
-39.842835295101139
10
-3.3412171040178
20
-39.842835295101139
42
5.1382993359404399
0
LWPOLYLINE
5
153
100
AcDbEntity
8
0
100
AcDbPolyline
90
24
70
1
43
0.0
10
-3.6431619902070067
20
88.418551866242851
10
11.203877993019105
20
88.418551866242851
10
11.2038779930191
20
96.266512161130052
10
58.451449256172921
20
96.266512207901911
42
0.34322917377605722
10
165.07858933282037
20
179.2359186856909
42
-0.88296851697531686
10
189.69530980076368
20
176.16426032578246
10
189.69530979989446
20
-173.83573967421754
42
-0.88297552473738494
10
165.0785893328204
20
-176.90739803412589
42
0.34322917377605711
10
58.451449256172893
20
-93.937991556336982
10
11.203877993019113
20
-93.937991509565123
10
11.203877993019116
20
-86.090031214677921
10
-3.6431619902069912
20
-86.090031214677936
10
-3.6431619902069912
20
-89.090031214678049
10
7.4113373460242045
20
-89.090031214677822
10
7.4113373460240961
20
-93.937991505810743
10
-53.665627174280992
20
-93.9379914453487
42
0.34572441179199759
10
-160.52969255863195
20
-177.85980989826683
42
-0.92463680815376481
10
-185.29521125728559
20
-173.83573967421751
10
-185.2952112572855
20
176.16263364635006
42
-0.8576930534878886
10
-160.52969255863192
20
180.18833054983176
42
0.34572441179057223
10
-53.665627174280957
20
96.266512096913615
10
7.411337346024121
20
96.266512157375658
10
7.4113373460241982
20
91.418551866242751
10
-3.6431619902070045
20
91.418551866242964
0
LWPOLYLINE
5
154
100
AcDbEntity
8
0
100
AcDbPolyline
90
6
70
1
43
0.0
10
11.458358815283336
20
37.157164704898861
42
-0.41421356237309825
10
10.458358815283354
20
36.157164704898868
10
-3.3787377022695981
20
36.157164704898861
42
-5.138299335940415
10
-3.3412171040178062
20
39.157164704898868
10
10.458358815283395
20
39.157164704898875
42
-0.41421356237309437
10
11.458358815283333
20
38.157164704898946
0
CIRCLE
5
155
100
AcDbEntity
8
0
100
AcDbCircle
10
-125.60469019923632
20
56.164260325782465
30
0
40
2.5500000000000078
210
0
220
-0
230
1
0
CIRCLE
5
156
100
AcDbEntity
8
0
100
AcDbCircle
10
-82.804690199236319
20
86.164260325782465
30
0
40
2.4249999999999972
210
0
220
-0
230
1
0
CIRCLE
5
157
100
AcDbEntity
8
0
100
AcDbCircle
10
-165.30469019923632
20
56.164260325782465
30
0
40
3.5999999999999943
210
0
220
-0
230
1
0
CIRCLE
5
158
100
AcDbEntity
8
0
100
AcDbCircle
10
-105.60469019923632
20
56.164260325782465
30
0
40
2.5500000000000078
210
0
220
-0
230
1
0
CIRCLE
5
159
100
AcDbEntity
8
0
100
AcDbCircle
10
-155.30469019923632
20
35.521162630580392
30
0
40
1.6999999999999993
210
0
220
-0
230
1
0
CIRCLE
5
160
100
AcDbEntity
8
0
100
AcDbCircle
10
-172.80469019923632
20
-173.83573967421754
30
0
40
2.3999999999999844
210
0
220
-0
230
1
0
CIRCLE
5
161
100
AcDbEntity
8
0
100
AcDbCircle
10
-82.804690199236319
20
-83.835739674217535
30
0
40
2.4249999999999972
210
0
220
-0
230
1
0
CIRCLE
5
162
100
AcDbEntity
8
0
100
AcDbCircle
10
177.19530980076368
20
176.16426032578246
30
0
40
2.3999999999999844
210
0
220
-0
230
1
0
CIRCLE
5
163
100
AcDbEntity
8
0
100
AcDbCircle
10
169.69530980076368
20
56.164260325782465
30
0
40
3.5999999999999943
210
0
220
-0
230
1
0
CIRCLE
5
164
100
AcDbEntity
8
0
100
AcDbCircle
10
87.195309800763681
20
86.164260325782465
30
0
40
2.4249999999999972
210
0
220
-0
230
1
0
CIRCLE
5
165
100
AcDbEntity
8
0
100
AcDbCircle
10
129.99530980076366
20
56.164260325782465
30
0
40
2.5500000000000078
210
0
220
-0
230
1
0
CIRCLE
5
166
100
AcDbEntity
8
0
100
AcDbCircle
10
159.69530980076368
20
55.521162630580392
30
0
40
1.6999999999999993
210
0
220
-0
230
1
0
CIRCLE
5
167
100
AcDbEntity
8
0
100
AcDbCircle
10
109.99530980076366
20
56.164260325782465
30
0
40
2.5500000000000078
210
0
220
-0
230
1
0
CIRCLE
5
168
100
AcDbEntity
8
0
100
AcDbCircle
10
-155.30469019923632
20
50.521162630580378
30
0
40
1.6999999999999993
210
0
220
-0
230
1
0
CIRCLE
5
169
100
AcDbEntity
8
0
100
AcDbCircle
10
-135.30469019923632
20
55.521162630580392
30
0
40
1.6999999999999993
210
0
220
-0
230
1
0
CIRCLE
5
170
100
AcDbEntity
8
0
100
AcDbCircle
10
-135.30469019923632
20
35.521162630580392
30
0
40
1.6999999999999815
210
0
220
-0
230
1
0
CIRCLE
5
171
100
AcDbEntity
8
0
100
AcDbCircle
10
-155.30469019923632
20
55.521162630580392
30
0
40
1.6999999999999993
210
0
220
-0
230
1
0
CIRCLE
5
172
100
AcDbEntity
8
0
100
AcDbCircle
10
-135.30469019923632
20
50.521162630580378
30
0
40
1.6999999999999993
210
0
220
-0
230
1
0
CIRCLE
5
173
100
AcDbEntity
8
0
100
AcDbCircle
10
-172.50469019923634
20
176.16426032578246
30
0
40
2.3999999999999844
210
0
220
-0
230
1
0
CIRCLE
5
174
100
AcDbEntity
8
0
100
AcDbCircle
10
129.99530980076366
20
-53.835739674217535
30
0
40
2.5499999999999901
210
0
220
-0
230
1
0
CIRCLE
5
175
100
AcDbEntity
8
0
100
AcDbCircle
10
169.69530980076368
20
-53.835739674217535
30
0
40
3.5999999999999943
210
0
220
-0
230
1
0
CIRCLE
5
176
100
AcDbEntity
8
0
100
AcDbCircle
10
129.99530980076366
20
1.1642603257824646
30
0
40
3.5999999999999943
210
0
220
-0
230
1
0
CIRCLE
5
177
100
AcDbEntity
8
0
100
AcDbCircle
10
139.69530980076368
20
-48.192641979015448
30
0
40
1.6999999999999993
210
0
220
-0
230
1
0
CIRCLE
5
178
100
AcDbEntity
8
0
100
AcDbCircle
10
177.19530980076368
20
-173.83573967421754
30
0
40
2.3999999999999844
210
0
220
-0
230
1
0
CIRCLE
5
179
100
AcDbEntity
8
0
100
AcDbCircle
10
109.99530980076366
20
1.1642603257824646
30
0
40
3.5999999999999943
210
0
220
-0
230
1
0
CIRCLE
5
180
100
AcDbEntity
8
0
100
AcDbCircle
10
87.195309800763681
20
-83.835739674217535
30
0
40
2.4249999999999972
210
0
220
-0
230
1
0
CIRCLE
5
181
100
AcDbEntity
8
0
100
AcDbCircle
10
159.69530980076368
20
-48.192641979015448
30
0
40
1.6999999999999993
210
0
220
-0
230
1
0
CIRCLE
5
182
100
AcDbEntity
8
0
100
AcDbCircle
10
159.69530980076368
20
-33.19264197901547
30
0
40
1.6999999999999993
210
0
220
-0
230
1
0
CIRCLE
5
183
100
AcDbEntity
8
0
100
AcDbCircle
10
169.69530980076368
20
1.1642603257824646
30
0
40
3.5999999999999943
210
0
220
-0
230
1
0
CIRCLE
5
184
100
AcDbEntity
8
0
100
AcDbCircle
10
139.69530980076368
20
-53.192641979015463
30
0
40
1.6999999999999993
210
0
220
-0
230
1
0
CIRCLE
5
185
100
AcDbEntity
8
0
100
AcDbCircle
10
159.69530980076368
20
-53.192641979015463
30
0
40
1.6999999999999993
210
0
220
-0
230
1
0
CIRCLE
5
186
100
AcDbEntity
8
0
100
AcDbCircle
10
109.99530980076366
20
-53.835739674217535
30
0
40
2.5499999999999901
210
0
220
-0
230
1
0
CIRCLE
5
187
100
AcDbEntity
8
0
100
AcDbCircle
10
139.69530980076368
20
-33.19264197901547
30
0
40
1.6999999999999815
210
0
220
-0
230
1
0
CIRCLE
5
188
100
AcDbEntity
8
0
100
AcDbCircle
10
-125.60469019923632
20
-53.835739674217535
30
0
40
2.5499999999999901
210
0
220
-0
230
1
0
CIRCLE
5
189
100
AcDbEntity
8
0
100
AcDbCircle
10
-155.30469019923632
20
-53.192641979015463
30
0
40
1.6999999999999993
210
0
220
-0
230
1
0
CIRCLE
5
190
100
AcDbEntity
8
0
100
AcDbCircle
10
-165.30469019923632
20
-53.835739674217535
30
0
40
3.5999999999999943
210
0
220
-0
230
1
0
LWPOLYLINE
5
191
100
AcDbEntity
8
0
100
AcDbPolyline
90
6
70
1
43
0.0
10
10.458358815283388
20
-39.842835295101139
10
-3.3412171040178
20
-39.842835295101139
42
5.1382993359404399
10
-3.378737702269583
20
-42.842835295101132
10
10.458358815283358
20
-42.842835295101125
42
0.41421356237309503
10
11.458358815283328
20
-41.842835295101153
10
11.458358815283328
20
-40.842835295101082
42
0.41421356237309503
0
CIRCLE
5
192
100
AcDbEntity
8
0
100
AcDbCircle
10
139.69530980076368
20
35.521162630580399
30
0
40
1.6999999999999815
210
0
220
-0
230
1
0
CIRCLE
5
193
100
AcDbEntity
8
0
100
AcDbCircle
10
159.69530980076368
20
35.521162630580399
30
0
40
1.6999999999999993
210
0
220
-0
230
1
0
CIRCLE
5
194
100
AcDbEntity
8
0
100
AcDbCircle
10
159.69530980076368
20
50.521162630580378
30
0
40
1.6999999999999993
210
0
220
-0
230
1
0
CIRCLE
5
195
100
AcDbEntity
8
0
100
AcDbCircle
10
139.69530980076368
20
50.521162630580378
30
0
40
1.6999999999999993
210
0
220
-0
230
1
0
CIRCLE
5
196
100
AcDbEntity
8
0
100
AcDbCircle
10
-125.60469019923632
20
1.1642603257824646
30
0
40
3.5999999999999943
210
0
220
-0
230
1
0
CIRCLE
5
197
100
AcDbEntity
8
0
100
AcDbCircle
10
-135.30469019923632
20
-53.192641979015463
30
0
40
1.6999999999999993
210
0
220
-0
230
1
0
CIRCLE
5
198
100
AcDbEntity
8
0
100
AcDbCircle
10
-105.60469019923632
20
-53.835739674217535
30
0
40
2.5499999999999901
210
0
220
-0
230
1
0
CIRCLE
5
199
100
AcDbEntity
8
0
100
AcDbCircle
10
-155.30469019923632
20
-48.192641979015463
30
0
40
1.6999999999999993
210
0
220
-0
230
1
0
CIRCLE
5
200
100
AcDbEntity
8
0
100
AcDbCircle
10
-135.30469019923632
20
-33.192641979015463
30
0
40
1.6999999999999815
210
0
220
-0
230
1
0
CIRCLE
5
201
100
AcDbEntity
8
0
100
AcDbCircle
10
-165.30469019923632
20
1.1642603257824646
30
0
40
3.5999999999999943
210
0
220
-0
230
1
0
CIRCLE
5
202
100
AcDbEntity
8
0
100
AcDbCircle
10
139.69530980076368
20
55.521162630580392
30
0
40
1.6999999999999993
210
0
220
-0
230
1
0
CIRCLE
5
203
100
AcDbEntity
8
0
100
AcDbCircle
10
-155.30469019923632
20
-33.192641979015463
30
0
40
1.6999999999999993
210
0
220
-0
230
1
0
CIRCLE
5
204
100
AcDbEntity
8
0
100
AcDbCircle
10
-105.60469019923632
20
1.1642603257824646
30
0
40
3.5999999999999943
210
0
220
-0
230
1
0
CIRCLE
5
205
100
AcDbEntity
8
0
100
AcDbCircle
10
-135.30469019923632
20
-48.192641979015463
30
0
40
1.6999999999999993
210
0
220
-0
230
1
0
ENDSEC
0
SECTION
2
OBJECTS
0
DICTIONARY
5
C
100
AcDbDictionary
3
ACAD_GROUP
350
D
3
ACAD_MLINESTYLE
350
17
0
DICTIONARY
5
D
100
AcDbDictionary
0
DICTIONARY
5
1A
330
C
100
AcDbDictionary
0
DICTIONARY
5
17
100
AcDbDictionary
0
ENDSEC
0
EOF
