0
SECTION
2
HEADER
9
$INSUNITS
70
4
9
$ACADVER
1
AC1014
9
$HANDSEED
5
FFFF
0
ENDSEC
0
SECTION
2
TABLES
0
TABLE
2
VPORT
5
8
100
AcDbSymbolTable
0
ENDTAB
0
TABLE
2
LTYPE
5
5
100
AcDbSymbolTable
0
LTYPE
5
14
100
AcDbSymbolTableRecord
100
AcDbLinetypeTableRecord
2
BYBLOCK
70
0
0
LTYPE
5
15
100
AcDbSymbolTableRecord
100
AcDbLinetypeTableRecord
2
BYLAYER
70
0
0
ENDTAB
0
TABLE
2
LAYER
5
2
100
AcDbSymbolTable
70
2
0
LAYER
5
50
100
AcDbSymbolTableRecord
100
AcDbLayerTableRecord
2
0
70
0
6
CONTINUOUS
0
ENDTAB
0
TABLE
2
STYLE
5
3
100
AcDbSymbolTable
70
1
0
STYLE
5
11
100
AcDbSymbolTableRecord
100
AcDbTextStyleTableRecord
2
STANDARD
70
0
0
ENDTAB
0
TABLE
2
VIEW
5
6
100
AcDbSymbolTable
70
0
0
ENDTAB
0
TABLE
2
UCS
5
7
100
AcDbSymbolTable
70
0
0
ENDTAB
0
TABLE
2
APPID
5
9
100
AcDbSymbolTable
70
2
0
APPID
5
12
100
AcDbSymbolTableRecord
100
AcDbRegAppTableRecord
2
ACAD
70
0
0
ENDTAB
0
TABLE
2
DIMSTYLE
5
A
100
AcDbSymbolTable
70
1
0
ENDTAB
0
TABLE
2
BLOCK_RECORD
5
1
100
AcDbSymbolTable
70
1
0
BLOCK_RECORD
5
1F
100
AcDbSymbolTableRecord
100
AcDbBlockTableRecord
2
*MODEL_SPACE
0
BLOCK_RECORD
5
1B
100
AcDbSymbolTableRecord
100
AcDbBlockTableRecord
2
*PAPER_SPACE
0
ENDTAB
0
ENDSEC
0
SECTION
2
BLOCKS
0
BLOCK
5
20
100
AcDbEntity
100
AcDbBlockBegin
2
*MODEL_SPACE
0
ENDBLK
5
21
100
AcDbEntity
100
AcDbBlockEnd
0
BLOCK
5
1C
100
AcDbEntity
100
AcDbBlockBegin
2
*PAPER_SPACE
0
ENDBLK
5
1D
100
AcDbEntity
100
AcDbBlockEnd
0
ENDSEC
0
SECTION
2
ENTITIES
0
LWPOLYLINE
5
100
100
AcDbEntity
8
0
100
AcDbPolyline
90
24
70
1
43
0.0
10
-5.8429719902069976
20
-89.090031214678064
10
5.211527346024198
20
-89.090031214677822
10
5.2115273460240896
20
-93.937991505810743
10
-55.865437174281006
20
-93.9379914453487
42
0.34572441179199759
10
-162.72950255863202
20
-177.85980989826683
42
-0.92463680815376481
10
-187.4950212572856
20
-173.83573967421754
10
-187.49502125728552
20
176.16263364635006
42
-0.8576930534878896
10
-162.72950255863194
20
180.18833054983173
42
0.34572441179057234
10
-55.865437174280963
20
96.266512096913601
10
5.2115273460241154
20
96.266512157375658
10
5.2115273460241918
20
91.418551866242765
10
-5.842971990207011
20
91.418551866242964
10
-5.8429719902070136
20
88.418551866242851
10
9.004067993019099
20
88.418551866242851
10
9.0040679930190919
20
96.266512161130052
10
56.251639256172922
20
96.266512207901926
42
0.34322917377605711
10
162.87877933282033
20
179.2359186856909
42
-0.88296851697531453
10
187.4954998007637
20
176.16426032578246
10
187.4954997998945
20
-173.83573967421754
42
-0.88297552473738328
10
162.87877933282044
20
-176.90739803412586
42
0.34322917377605711
10
56.251639256172865
20
-93.937991556337025
10
9.0040679930191097
20
-93.937991509565123
10
9.0040679930191114
20
-86.090031214677921
10
-5.8429719902069976
20
-86.09003121467795
0
LWPOLYLINE
5
101
100
AcDbEntity
8
0
100
AcDbPolyline
90
24
70
1
43
0.0
10
5.211527346024198
20
-89.090031214677822
10
5.2115273460240896
20
-93.937991505810743
10
-55.865437174281006
20
-93.9379914453487
42
0.34572441179199759
10
-162.72950255863202
20
-177.85980989826683
42
-0.92463680815376481
10
-187.4950212572856
20
-173.83573967421754
10
-187.49502125728552
20
176.16263364635006
42
-0.8576930534878896
10
-162.72950255863194
20
180.18833054983173
42
0.34572441179057234
10
-55.865437174280963
20
96.266512096913601
10
5.2115273460241154
20
96.266512157375658
10
5.2115273460241918
20
91.418551866242765
10
-5.842971990207011
20
91.418551866242964
10
-5.8429719902070136
20
88.418551866242851
10
9.004067993019099
20
88.418551866242851
10
9.0040679930190919
20
96.266512161130052
10
56.251639256172922
20
96.266512207901926
42
0.34322917377605711
10
162.87877933282033
20
179.2359186856909
42
-0.88296851697531453
10
187.4954998007637
20
176.16426032578246
10
187.4954997998945
20
-173.83573967421754
42
-0.88297552473738328
10
162.87877933282044
20
-176.90739803412586
42
0.34322917377605711
10
56.251639256172865
20
-93.937991556337025
10
9.0040679930191097
20
-93.937991509565123
10
9.0040679930191114
20
-86.090031214677921
10
-5.8429719902069976
20
-86.09003121467795
10
-5.8429719902069976
20
-89.090031214678064
0
CIRCLE
5
102
100
AcDbEntity
8
0
100
AcDbCircle
10
174.9954998007637
20
176.16426032578246
30
0
40
2.3999999999999844
210
0
220
0
230
1
0
CIRCLE
5
103
100
AcDbEntity
8
0
100
AcDbCircle
10
-174.70450019923635
20
176.16426032578246
30
0
40
2.3999999999999844
210
0
220
0
230
1
0
CIRCLE
5
104
100
AcDbEntity
8
0
100
AcDbCircle
10
107.79549980076366
20
-53.835739674217535
30
0
40
2.5499999999999901
210
0
220
0
230
1
0
CIRCLE
5
105
100
AcDbEntity
8
0
100
AcDbCircle
10
167.49549980076367
20
-53.835739674217535
30
0
40
3.5999999999999943
210
0
220
0
230
1
0
CIRCLE
5
106
100
AcDbEntity
8
0
100
AcDbCircle
10
-137.50450019923633
20
-33.192641979015463
30
0
40
1.6999999999999815
210
0
220
0
230
1
0
LWPOLYLINE
5
107
100
AcDbEntity
8
0
100
AcDbPolyline
90
6
70
1
43
0.0
10
-5.5785477022696046
20
36.157164704898868
10
8.2585488152833477
20
36.157164704898875
42
0.41421356237309825
10
9.2585488152833246
20
37.157164704898868
10
9.2585488152833246
20
38.157164704898953
10
9.2585488152833246
20
37.157164704898868
42
-0.41421356237309698
10
8.2585488152833477
20
36.157164704898868
0
CIRCLE
5
108
100
AcDbEntity
8
0
100
AcDbCircle
10
107.79549980076366
20
56.164260325782472
30
0
40
2.5500000000000078
210
0
220
0
230
1
0
CIRCLE
5
109
100
AcDbEntity
8
0
100
AcDbCircle
10
137.4954998007637
20
35.521162630580399
30
0
40
1.6999999999999815
210
0
220
0
230
1
0
CIRCLE
5
110
100
AcDbEntity
8
0
100
AcDbCircle
10
-157.50450019923633
20
-53.192641979015463
30
0
40
1.6999999999999993
210
0
220
0
230
1
0
CIRCLE
5
111
100
AcDbEntity
8
0
100
AcDbCircle
10
157.4954998007637
20
-48.192641979015463
30
0
40
1.6999999999999993
210
0
220
0
230
1
0
LWPOLYLINE
5
112
100
AcDbEntity
8
0
100
AcDbPolyline
90
2
70
1
43
0.0
10
-5.5410271040178127
20
39.157164704898868
42
5.138299335940415
10
-5.5785477022696046
20
36.157164704898868
42
-5.138299335940415
0
CIRCLE
5
113
100
AcDbEntity
8
0
100
AcDbCircle
10
-137.50450019923633
20
55.521162630580392
30
0
40
1.6999999999999993
210
0
220
0
230
1
0
CIRCLE
5
114
100
AcDbEntity
8
0
100
AcDbCircle
10
84.995499800763682
20
-83.83573967421755
30
0
40
2.4249999999999967
210
0
220
0
230
1
0
CIRCLE
5
115
100
AcDbEntity
8
0
100
AcDbCircle
10
-107.80450019923633
20
1.1642603257824646
30
0
40
3.5999999999999943
210
0
220
0
230
1
0
LWPOLYLINE
5
116
100
AcDbEntity
8
0
100
AcDbPolyline
90
6
70
1
43
0.0
10
8.2585488152833513
20
-42.842835295101132
42
0.41421356237310347
10
9.258548815283314
20
-41.842835295101146
10
9.2585488152833211
20
-40.842835295101089
42
0.41421356237309631
10
8.2585488152833797
20
-39.842835295101139
10
-5.5410271040178047
20
-39.842835295101139
42
5.1382993359404399
10
-5.5785477022695895
20
-42.842835295101132
0
LWPOLYLINE
5
117
100
AcDbEntity
8
0
100
AcDbPolyline
90
6
70
1
43
0.0
10
8.2585488152833797
20
-39.842835295101139
10
-5.5410271040178047
20
-39.842835295101139
42
5.1382993359404399
10
-5.5785477022695895
20
-42.842835295101132
10
8.2585488152833513
20
-42.842835295101132
42
0.41421356237310347
10
9.258548815283314
20
-41.842835295101146
10
9.2585488152833211
20
-40.842835295101089
42
0.41421356237309631
0
CIRCLE
5
118
100
AcDbEntity
8
0
100
AcDbCircle
10
-167.50450019923633
20
-53.835739674217535
30
0
40
3.5999999999999943
210
0
220
0
230
1
0
CIRCLE
5
119
100
AcDbEntity
8
0
100
AcDbCircle
10
-85.004500199236332
20
-83.83573967421755
30
0
40
2.4249999999999967
210
0
220
0
230
1
0
CIRCLE
5
120
100
AcDbEntity
8
0
100
AcDbCircle
10
137.4954998007637
20
-33.19264197901547
30
0
40
1.6999999999999815
210
0
220
0
230
1
0
CIRCLE
5
121
100
AcDbEntity
8
0
100
AcDbCircle
10
-137.50450019923633
20
50.521162630580392
30
0
40
1.6999999999999993
210
0
220
0
230
1
0
CIRCLE
5
122
100
AcDbEntity
8
0
100
AcDbCircle
10
-137.50450019923633
20
35.521162630580392
30
0
40
1.6999999999999815
210
0
220
0
230
1
0
CIRCLE
5
123
100
AcDbEntity
8
0
100
AcDbCircle
10
107.79549980076366
20
1.1642603257824646
30
0
40
3.5999999999999943
210
0
220
0
230
1
0
CIRCLE
5
124
100
AcDbEntity
8
0
100
AcDbCircle
10
-127.80450019923633
20
-53.835739674217535
30
0
40
2.5499999999999901
210
0
220
0
230
1
0
CIRCLE
5
125
100
AcDbEntity
8
0
100
AcDbCircle
10
-167.50450019923633
20
56.164260325782472
30
0
40
3.5999999999999943
210
0
220
0
230
1
0
CIRCLE
5
126
100
AcDbEntity
8
0
100
AcDbCircle
10
-85.004500199236332
20
86.16426032578245
30
0
40
2.4249999999999967
210
0
220
0
230
1
0
CIRCLE
5
127
100
AcDbEntity
8
0
100
AcDbCircle
10
137.4954998007637
20
50.521162630580392
30
0
40
1.6999999999999993
210
0
220
0
230
1
0
CIRCLE
5
128
100
AcDbEntity
8
0
100
AcDbCircle
10
157.4954998007637
20
-33.19264197901547
30
0
40
1.6999999999999993
210
0
220
0
230
1
0
CIRCLE
5
129
100
AcDbEntity
8
0
100
AcDbCircle
10
-127.80450019923633
20
56.164260325782472
30
0
40
2.5500000000000078
210
0
220
0
230
1
0
LWPOLYLINE
5
130
100
AcDbEntity
8
0
100
AcDbPolyline
90
2
70
1
43
0.0
10
8.2585488152833904
20
39.157164704898868
10
-5.5410271040178127
20
39.157164704898868
0
CIRCLE
5
131
100
AcDbEntity
8
0
100
AcDbCircle
10
-107.80450019923633
20
-53.835739674217535
30
0
40
2.5499999999999901
210
0
220
0
230
1
0
CIRCLE
5
132
100
AcDbEntity
8
0
100
AcDbCircle
10
167.49549980076367
20
1.1642603257824646
30
0
40
3.5999999999999943
210
0
220
0
230
1
0
CIRCLE
5
133
100
AcDbEntity
8
0
100
AcDbCircle
10
127.79549980076366
20
-53.835739674217535
30
0
40
2.5499999999999901
210
0
220
0
230
1
0
CIRCLE
5
134
100
AcDbEntity
8
0
100
AcDbCircle
10
-157.50450019923633
20
50.521162630580392
30
0
40
1.6999999999999993
210
0
220
0
230
1
0
CIRCLE
5
135
100
AcDbEntity
8
0
100
AcDbCircle
10
127.79549980076366
20
56.164260325782472
30
0
40
2.5500000000000078
210
0
220
0
230
1
0
CIRCLE
5
136
100
AcDbEntity
8
0
100
AcDbCircle
10
-175.0045001992363
20
-173.83573967421754
30
0
40
2.3999999999999844
210
0
220
0
230
1
0
CIRCLE
5
137
100
AcDbEntity
8
0
100
AcDbCircle
10
-157.50450019923633
20
-33.192641979015463
30
0
40
1.6999999999999993
210
0
220
0
230
1
0
CIRCLE
5
138
100
AcDbEntity
8
0
100
AcDbCircle
10
84.995499800763682
20
86.16426032578245
30
0
40
2.4249999999999967
210
0
220
0
230
1
0
CIRCLE
5
139
100
AcDbEntity
8
0
100
AcDbCircle
10
174.9954998007637
20
-173.83573967421754
30
0
40
2.3999999999999844
210
0
220
0
230
1
0
CIRCLE
5
140
100
AcDbEntity
8
0
100
AcDbCircle
10
157.4954998007637
20
-53.192641979015463
30
0
40
1.6999999999999993
210
0
220
0
230
1
0
CIRCLE
5
141
100
AcDbEntity
8
0
100
AcDbCircle
10
-137.50450019923633
20
-53.192641979015463
30
0
40
1.6999999999999993
210
0
220
0
230
1
0
CIRCLE
5
142
100
AcDbEntity
8
0
100
AcDbCircle
10
-167.50450019923633
20
1.1642603257824646
30
0
40
3.5999999999999943
210
0
220
0
230
1
0
CIRCLE
5
143
100
AcDbEntity
8
0
100
AcDbCircle
10
157.4954998007637
20
55.521162630580392
30
0
40
1.6999999999999993
210
0
220
0
230
1
0
CIRCLE
5
144
100
AcDbEntity
8
0
100
AcDbCircle
10
127.79549980076366
20
1.1642603257824646
30
0
40
3.5999999999999943
210
0
220
0
230
1
0
CIRCLE
5
145
100
AcDbEntity
8
0
100
AcDbCircle
10
-127.80450019923633
20
1.1642603257824646
30
0
40
3.5999999999999943
210
0
220
0
230
1
0
CIRCLE
5
146
100
AcDbEntity
8
0
100
AcDbCircle
10
-107.80450019923633
20
56.164260325782472
30
0
40
2.5500000000000078
210
0
220
0
230
1
0
CIRCLE
5
147
100
AcDbEntity
8
0
100
AcDbCircle
10
-157.50450019923633
20
35.521162630580392
30
0
40
1.6999999999999993
210
0
220
0
230
1
0
LWPOLYLINE
5
148
100
AcDbEntity
8
0
100
AcDbPolyline
90
2
70
1
43
0.0
10
9.2585488152833246
20
38.157164704898953
42
0.41421356237309825
10
8.2585488152833904
20
39.157164704898868
42
-0.41421356237309309
0
CIRCLE
5
149
100
AcDbEntity
8
0
100
AcDbCircle
10
167.49549980076367
20
56.164260325782472
30
0
40
3.5999999999999943
210
0
220
0
230
1
0
CIRCLE
5
150
100
AcDbEntity
8
0
100
AcDbCircle
10
-157.50450019923633
20
-48.192641979015463
30
0
40
1.6999999999999993
210
0
220
0
230
1
0
CIRCLE
5
151
100
AcDbEntity
8
0
100
AcDbCircle
10
-157.50450019923633
20
55.521162630580392
30
0
40
1.6999999999999993
210
0
220
0
230
1
0
CIRCLE
5
152
100
AcDbEntity
8
0
100
AcDbCircle
10
157.4954998007637
20
50.521162630580392
30
0
40
1.6999999999999993
210
0
220
0
230
1
0
CIRCLE
5
153
100
AcDbEntity
8
0
100
AcDbCircle
10
137.4954998007637
20
-48.192641979015463
30
0
40
1.6999999999999993
210
0
220
0
230
1
0
CIRCLE
5
154
100
AcDbEntity
8
0
100
AcDbCircle
10
-137.50450019923633
20
-48.192641979015463
30
0
40
1.6999999999999993
210
0
220
0
230
1
0
CIRCLE
5
155
100
AcDbEntity
8
0
100
AcDbCircle
10
157.4954998007637
20
35.521162630580399
30
0
40
1.6999999999999993
210
0
220
0
230
1
0
CIRCLE
5
156
100
AcDbEntity
8
0
100
AcDbCircle
10
-85.004500199236332
20
86.16426032578245
30
0
40
2.4249999999999967
210
0
220
0
230
1
0
CIRCLE
5
157
100
AcDbEntity
8
0
100
AcDbCircle
10
137.4954998007637
20
-53.192641979015463
30
0
40
1.6999999999999993
210
0
220
0
230
1
0
CIRCLE
5
158
100
AcDbEntity
8
0
100
AcDbCircle
10
-175.0045001992363
20
-173.83573967421754
30
0
40
2.3999999999999844
210
0
220
0
230
1
0
CIRCLE
5
159
100
AcDbEntity
8
0
100
AcDbCircle
10
137.4954998007637
20
55.521162630580392
30
0
40
1.6999999999999993
210
0
220
0
230
1
0
CIRCLE
5
160
100
AcDbEntity
8
0
100
AcDbCircle
10
167.49549980076367
20
56.164260325782472
30
0
40
3.5999999999999943
210
0
220
0
230
1
0
CIRCLE
5
161
100
AcDbEntity
8
0
100
AcDbCircle
10
-85.004500199236332
20
-83.83573967421755
30
0
40
2.4249999999999967
210
0
220
0
230
1
0
CIRCLE
5
162
100
AcDbEntity
8
0
100
AcDbCircle
10
174.9954998007637
20
176.16426032578246
30
0
40
2.3999999999999844
210
0
220
0
230
1
0
CIRCLE
5
163
100
AcDbEntity
8
0
100
AcDbCircle
10
-174.70450019923635
20
176.16426032578246
30
0
40
2.3999999999999844
210
0
220
0
230
1
0
CIRCLE
5
164
100
AcDbEntity
8
0
100
AcDbCircle
10
-157.50450019923633
20
35.521162630580392
30
0
40
1.6999999999999993
210
0
220
0
230
1
0
CIRCLE
5
165
100
AcDbEntity
8
0
100
AcDbCircle
10
-157.50450019923633
20
55.521162630580392
30
0
40
1.6999999999999993
210
0
220
0
230
1
0
CIRCLE
5
166
100
AcDbEntity
8
0
100
AcDbCircle
10
157.4954998007637
20
-53.192641979015463
30
0
40
1.6999999999999993
210
0
220
0
230
1
0
CIRCLE
5
167
100
AcDbEntity
8
0
100
AcDbCircle
10
127.79549980076366
20
56.164260325782472
30
0
40
2.5500000000000078
210
0
220
0
230
1
0
CIRCLE
5
168
100
AcDbEntity
8
0
100
AcDbCircle
10
157.4954998007637
20
35.521162630580399
30
0
40
1.6999999999999993
210
0
220
0
230
1
0
CIRCLE
5
169
100
AcDbEntity
8
0
100
AcDbCircle
10
-157.50450019923633
20
-33.192641979015463
30
0
40
1.6999999999999993
210
0
220
0
230
1
0
CIRCLE
5
170
100
AcDbEntity
8
0
100
AcDbCircle
10
137.4954998007637
20
50.521162630580392
30
0
40
1.6999999999999993
210
0
220
0
230
1
0
CIRCLE
5
171
100
AcDbEntity
8
0
100
AcDbCircle
10
127.79549980076366
20
1.1642603257824646
30
0
40
3.5999999999999943
210
0
220
0
230
1
0
CIRCLE
5
172
100
AcDbEntity
8
0
100
AcDbCircle
10
157.4954998007637
20
55.521162630580392
30
0
40
1.6999999999999993
210
0
220
0
230
1
0
CIRCLE
5
173
100
AcDbEntity
8
0
100
AcDbCircle
10
137.4954998007637
20
-53.192641979015463
30
0
40
1.6999999999999993
210
0
220
0
230
1
0
CIRCLE
5
174
100
AcDbEntity
8
0
100
AcDbCircle
10
-127.80450019923633
20
56.164260325782472
30
0
40
2.5500000000000078
210
0
220
0
230
1
0
CIRCLE
5
175
100
AcDbEntity
8
0
100
AcDbCircle
10
157.4954998007637
20
-48.192641979015463
30
0
40
1.6999999999999993
210
0
220
0
230
1
0
CIRCLE
5
176
100
AcDbEntity
8
0
100
AcDbCircle
10
157.4954998007637
20
-33.19264197901547
30
0
40
1.6999999999999993
210
0
220
0
230
1
0
CIRCLE
5
177
100
AcDbEntity
8
0
100
AcDbCircle
10
-127.80450019923633
20
-53.835739674217535
30
0
40
2.5499999999999901
210
0
220
0
230
1
0
CIRCLE
5
178
100
AcDbEntity
8
0
100
AcDbCircle
10
-137.50450019923633
20
50.521162630580392
30
0
40
1.6999999999999993
210
0
220
0
230
1
0
CIRCLE
5
179
100
AcDbEntity
8
0
100
AcDbCircle
10
-137.50450019923633
20
35.521162630580392
30
0
40
1.6999999999999815
210
0
220
0
230
1
0
CIRCLE
5
180
100
AcDbEntity
8
0
100
AcDbCircle
10
107.79549980076366
20
1.1642603257824646
30
0
40
3.5999999999999943
210
0
220
0
230
1
0
CIRCLE
5
181
100
AcDbEntity
8
0
100
AcDbCircle
10
-167.50450019923633
20
1.1642603257824646
30
0
40
3.5999999999999943
210
0
220
0
230
1
0
CIRCLE
5
182
100
AcDbEntity
8
0
100
AcDbCircle
10
157.4954998007637
20
50.521162630580392
30
0
40
1.6999999999999993
210
0
220
0
230
1
0
CIRCLE
5
183
100
AcDbEntity
8
0
100
AcDbCircle
10
137.4954998007637
20
-33.19264197901547
30
0
40
1.6999999999999815
210
0
220
0
230
1
0
CIRCLE
5
184
100
AcDbEntity
8
0
100
AcDbCircle
10
-167.50450019923633
20
-53.835739674217535
30
0
40
3.5999999999999943
210
0
220
0
230
1
0
CIRCLE
5
185
100
AcDbEntity
8
0
100
AcDbCircle
10
-157.50450019923633
20
-48.192641979015463
30
0
40
1.6999999999999993
210
0
220
0
230
1
0
CIRCLE
5
186
100
AcDbEntity
8
0
100
AcDbCircle
10
107.79549980076366
20
56.164260325782472
30
0
40
2.5500000000000078
210
0
220
0
230
1
0
CIRCLE
5
187
100
AcDbEntity
8
0
100
AcDbCircle
10
-157.50450019923633
20
-53.192641979015463
30
0
40
1.6999999999999993
210
0
220
0
230
1
0
CIRCLE
5
188
100
AcDbEntity
8
0
100
AcDbCircle
10
-137.50450019923633
20
-33.192641979015463
30
0
40
1.6999999999999815
210
0
220
0
230
1
0
CIRCLE
5
189
100
AcDbEntity
8
0
100
AcDbCircle
10
-127.80450019923633
20
1.1642603257824646
30
0
40
3.5999999999999943
210
0
220
0
230
1
0
CIRCLE
5
190
100
AcDbEntity
8
0
100
AcDbCircle
10
167.49549980076367
20
1.1642603257824646
30
0
40
3.5999999999999943
210
0
220
0
230
1
0
CIRCLE
5
191
100
AcDbEntity
8
0
100
AcDbCircle
10
-107.80450019923633
20
-53.835739674217535
30
0
40
2.5499999999999901
210
0
220
0
230
1
0
CIRCLE
5
192
100
AcDbEntity
8
0
100
AcDbCircle
10
-137.50450019923633
20
-48.192641979015463
30
0
40
1.6999999999999993
210
0
220
0
230
1
0
CIRCLE
5
193
100
AcDbEntity
8
0
100
AcDbCircle
10
137.4954998007637
20
35.521162630580399
30
0
40
1.6999999999999815
210
0
220
0
230
1
0
CIRCLE
5
194
100
AcDbEntity
8
0
100
AcDbCircle
10
-107.80450019923633
20
1.1642603257824646
30
0
40
3.5999999999999943
210
0
220
0
230
1
0
CIRCLE
5
195
100
AcDbEntity
8
0
100
AcDbCircle
10
174.9954998007637
20
-173.83573967421754
30
0
40
2.3999999999999844
210
0
220
0
230
1
0
CIRCLE
5
196
100
AcDbEntity
8
0
100
AcDbCircle
10
-137.50450019923633
20
55.521162630580392
30
0
40
1.6999999999999993
210
0
220
0
230
1
0
CIRCLE
5
197
100
AcDbEntity
8
0
100
AcDbCircle
10
107.79549980076366
20
-53.835739674217535
30
0
40
2.5499999999999901
210
0
220
0
230
1
0
CIRCLE
5
198
100
AcDbEntity
8
0
100
AcDbCircle
10
84.995499800763682
20
86.16426032578245
30
0
40
2.4249999999999967
210
0
220
0
230
1
0
CIRCLE
5
199
100
AcDbEntity
8
0
100
AcDbCircle
10
-107.80450019923633
20
56.164260325782472
30
0
40
2.5500000000000078
210
0
220
0
230
1
0
CIRCLE
5
200
100
AcDbEntity
8
0
100
AcDbCircle
10
137.4954998007637
20
55.521162630580392
30
0
40
1.6999999999999993
210
0
220
0
230
1
0
CIRCLE
5
201
100
AcDbEntity
8
0
100
AcDbCircle
10
-137.50450019923633
20
-53.192641979015463
30
0
40
1.6999999999999993
210
0
220
0
230
1
0
CIRCLE
5
202
100
AcDbEntity
8
0
100
AcDbCircle
10
-167.50450019923633
20
56.164260325782472
30
0
40
3.5999999999999943
210
0
220
0
230
1
0
CIRCLE
5
203
100
AcDbEntity
8
0
100
AcDbCircle
10
137.4954998007637
20
-48.192641979015463
30
0
40
1.6999999999999993
210
0
220
0
230
1
0
CIRCLE
5
204
100
AcDbEntity
8
0
100
AcDbCircle
10
127.79549980076366
20
-53.835739674217535
30
0
40
2.5499999999999901
210
0
220
0
230
1
0
CIRCLE
5
205
100
AcDbEntity
8
0
100
AcDbCircle
10
167.49549980076367
20
-53.835739674217535
30
0
40
3.5999999999999943
210
0
220
0
230
1
0
CIRCLE
5
206
100
AcDbEntity
8
0
100
AcDbCircle
10
-157.50450019923633
20
50.521162630580392
30
0
40
1.6999999999999993
210
0
220
0
230
1
0
CIRCLE
5
207
100
AcDbEntity
8
0
100
AcDbCircle
10
84.995499800763682
20
-83.83573967421755
30
0
40
2.4249999999999967
210
0
220
0
230
1
0
ENDSEC
0
SECTION
2
OBJECTS
0
DICTIONARY
5
C
100
AcDbDictionary
3
ACAD_GROUP
350
D
3
ACAD_MLINESTYLE
350
17
0
DICTIONARY
5
D
100
AcDbDictionary
0
DICTIONARY
5
1A
330
C
100
AcDbDictionary
0
DICTIONARY
5
17
100
AcDbDictionary
0
ENDSEC
0
EOF
